<?xml version="1.0" encoding="UTF-8"?>
<svg id="Layer_2" data-name="Layer 2" xmlns="http://www.w3.org/2000/svg" viewBox="0 0 50.23 50.25">
  <defs>
    <style>
      .cls-1 {
        fill: #008284;
      }

      .cls-1, .cls-2, .cls-3 {
        stroke-width: 0px;
      }

      .cls-2 {
        fill: #fff;
      }

      .cls-3 {
        fill: #4c4b4c;
      }
    </style>
  </defs>
  <g id="Layer_1-2" data-name="Layer 1">
    <g>
      <path class="cls-1" d="m48.73,50.25c-.38,0-.77-.15-1.06-.44l-13.77-13.77c-.59-.59-.59-1.54,0-2.12.59-.59,1.54-.59,2.12,0l13.77,13.77c.59.59.59,1.54,0,2.12-.29.29-.68.44-1.06.44Z"/>
      <g>
        <ellipse class="cls-2" cx="21.73" cy="22.14" rx="20.23" ry="20.64"/>
        <path class="cls-1" d="m21.73,44.28C9.75,44.28,0,34.35,0,22.14S9.75,0,21.73,0s21.73,9.93,21.73,22.14-9.75,22.14-21.73,22.14Zm0-41.28C11.4,3,3,11.59,3,22.14s8.4,19.14,18.73,19.14,18.73-8.59,18.73-19.14S32.05,3,21.73,3Z"/>
      </g>
      <path class="cls-3" d="m22.04,11.2v2.88h-9.14v6.35h7.13v2.88h-7.13v9.42h-3.53V11.2h12.68Z"/>
      <path class="cls-3" d="m23.13,21.03c.7-1.19,1.64-2.12,2.84-2.78,1.2-.67,2.5-1,3.93-1,1.63,0,3.08.4,4.34,1.2,1.27.8,2.19,1.93,2.76,3.4h-3.01c-.4-.81-.95-1.41-1.65-1.8-.7-.4-1.52-.59-2.44-.59-1.01,0-1.91.23-2.71.68s-1.41,1.11-1.86,1.96-.67,1.84-.67,2.97.22,2.12.67,2.97,1.07,1.51,1.86,1.97c.79.46,1.69.69,2.71.69.92,0,1.74-.2,2.44-.59.7-.4,1.25-1,1.65-1.8h3.01c-.57,1.47-1.49,2.6-2.76,3.39s-2.72,1.19-4.34,1.19c-1.44,0-2.75-.33-3.94-1-1.19-.67-2.13-1.59-2.83-2.78-.7-1.19-1.04-2.53-1.04-4.03s.35-2.84,1.04-4.03Z"/>
    </g>
  </g>
</svg>